<svg version="1.1" xmlns="http://www.w3.org/2000/svg" width="97" height="32" viewBox="0 0 97 32">
<title>hulu_logo</title>
<path fill="#3dbb3d" d="M21.574 11.962c1.606 1.306 2.411 3.345 2.411 6.117v13.921h-7.654v-12.896c0-0.562-0.211-1.055-0.633-1.476s-0.914-0.633-1.477-0.633h-4.46c-0.563 0-1.045 0.211-1.446 0.633s-0.603 0.914-0.603 1.476v12.896h-7.714v-32h7.714v10.426c0.121-0.040 0.401-0.12 0.844-0.241 0.442-0.12 1.024-0.181 1.748-0.181h4.942c2.611-0 4.72 0.653 6.328 1.959zM45.861 10.004h7.714v13.499c0 2.531-0.693 4.58-2.079 6.147s-3.265 2.35-5.635 2.35h-7.593c-2.652 0-4.771-0.733-6.358-2.2-1.588-1.466-2.381-3.565-2.381-6.298v-13.499h7.714v12.896c0 0.563 0.201 1.045 0.603 1.446s0.883 0.603 1.446 0.603h4.46c0.562 0 1.054-0.201 1.476-0.603s0.633-0.883 0.633-1.446zM59.42 0h7.714v32h-7.714zM97.025 10.004v13.499c0 2.531-0.693 4.58-2.079 6.147s-3.264 2.35-5.635 2.35h-7.533c-2.692 0-4.832-0.733-6.418-2.2-1.588-1.466-2.38-3.565-2.38-6.298v-13.499h7.714v12.896c0 0.563 0.2 1.045 0.603 1.446s0.883 0.603 1.446 0.603h4.52c0.562 0 1.044-0.201 1.446-0.603s0.603-0.883 0.603-1.446v-12.897z"></path>
</svg>
